<svg width="3884" height="752" viewBox="0 0 3884 752" fill="none" xmlns="http://www.w3.org/2000/svg">
<path d="M0 182C0 182 379.174 550.446 790.5 643.5C1540.69 813.215 2138 586.5 3043.5 238C3623.18 14.8985 3884 100.5 3884 100.5V751.956H0V182Z" fill="#0195AE" fill-opacity="0.25"/>
<path d="M0 295.5C0 295.5 605.506 584.499 1095 578.5C1507.7 573.442 2385.49 438.731 2789 352C3498.5 199.5 3884 234.5 3884 234.5V751.956H0V295.5Z" fill="#0195AE" fill-opacity="0.5"/>
<path d="M0 0.779175C0 0.779175 707.5 413 1178 478.5C1933.97 583.742 2563.48 384.508 3250.5 169C3718.03 22.3418 3884 104 3884 104V751.956H0V0.779175Z" fill="#0195AE" fill-opacity="0.2"/>
</svg>
